PathFileType	4	(X/Y/Z)	Gait_latera_markers.trc
DataRate	CameraRate	NumFrames	NumMarkers	Units	OrigDataRate	OrigDataStartFrame	OrigNumFrames
100	100	8	38	m	100	37	96
Frame#	Time	RASI			RPSI			LPSI			LASI			RTROCH			RTHI			RTHI2			RTHI3			RTHI4			RKNE			RKNEM			RTIB			RTIB2			RTIB3			RTIB4			RANK			RANKM			RHEE			RTOE			RTOEL			RTOEM			LTROCH			LTHI			LTHI2			LTHI3			LTHI4			LKNE			LKNEM			LTIB			LTIB2			LTIB3			LTIB4			LANK			LANKM			LHEE			LTOE			LTOEL			LTOEM
		X1	Y1	Z1	X2	Y2	Z2	X3	Y3	Z3	X4	Y4	Z4	X5	Y5	Z5	X6	Y6	Z6	X7	Y7	Z7	X8	Y8	Z8	X9	Y9	Z9	X10	Y10	Z10	X11	Y11	Z11	X12	Y12	Z12	X13	Y13	Z13	X14	Y14	Z14	X15	Y15	Z15	X16	Y16	Z16	X17	Y17	Z17	X18	Y18	Z18	X19	Y19	Z19	X20	Y20	Z20	X21	Y21	Z21	X22	Y22	Z22	X23	Y23	Z23	X24	Y24	Z24	X25	Y25	Z25	X26	Y26	Z26	X27	Y27	Z27	X28	Y28	Z28	X29	Y29	Z29	X30	Y30	Z30	X31	Y31	Z31	X32	Y32	Z32	X33	Y33	Z33	X34	Y34	Z34	X35	Y35	Z35	X36	Y36	Z36	X37	Y37	Z37	X38	Y38	Z38

37	0.360000	-0.316898	0.965879	-0.505050	-0.245698	0.998668	-0.689380	-0.150353	0.989507	-0.681175	-0.092727	0.976640	-0.489633	-0.371519	0.886313	-0.577026	-0.384466	0.768706	-0.581321	-0.385718	0.780877	-0.517536	-0.389945	0.700920	-0.493017	-0.389551	0.683192	-0.553334	-0.388749	0.536118	-0.523360	-0.270909	0.534056	-0.483122	-0.391786	0.455390	-0.613615	-0.379157	0.406996	-0.574699	-0.364820	0.353142	-0.642672	-0.379101	0.406476	-0.678610	-0.301102	0.280215	-0.840978	-0.245420	0.243074	-0.796412	-0.232925	0.287628	-0.895633	-0.348760	0.108125	-0.799003	-0.375428	0.150533	-0.862301	-0.289123	0.094928	-0.809395	-0.036151	0.902171	-0.561639	-0.035738	0.695138	-0.505800	-0.045673	0.705865	-0.444557	-0.061736	0.624962	-0.434822	-0.051938	0.608968	-0.497111	-0.075399	0.529741	-0.462009	-0.180001	0.553148	-0.452750	-0.069862	0.304498	-0.484598	-0.090063	0.313829	-0.424080	-0.104536	0.226911	-0.427598	-0.085256	0.222873	-0.486743	-0.119314	0.091841	-0.481421	-0.188790	0.120371	-0.443314	-0.176576	0.055662	-0.528970	-0.107288	0.062680	-0.302693	-0.065705	0.044621	-0.358529	-0.162712	0.054161	-0.311086
38	0.370000	-0.316040	0.968095	-0.493779	-0.245570	1.000629	-0.678359	-0.150166	0.991461	-0.670529	-0.091619	0.978177	-0.479124	-0.371009	0.888547	-0.564946	-0.384480	0.770744	-0.565578	-0.385616	0.784558	-0.501979	-0.390651	0.705106	-0.475668	-0.390383	0.685876	-0.535648	-0.389060	0.539201	-0.501527	-0.272251	0.538055	-0.461514	-0.391998	0.459003	-0.590402	-0.381312	0.410697	-0.551825	-0.366426	0.356216	-0.619225	-0.379164	0.409509	-0.655569	-0.301577	0.280895	-0.816291	-0.246187	0.244065	-0.771212	-0.233850	0.286341	-0.871670	-0.350304	0.110032	-0.769935	-0.377084	0.151315	-0.833982	-0.289700	0.096617	-0.781189	-0.035567	0.903520	-0.552043	-0.035433	0.696248	-0.498282	-0.046096	0.706352	-0.436818	-0.061000	0.625075	-0.428472	-0.051222	0.609898	-0.490763	-0.074770	0.529844	-0.457113	-0.178954	0.552583	-0.448698	-0.069139	0.304664	-0.481926	-0.089592	0.313604	-0.421443	-0.104405	0.226768	-0.425941	-0.084581	0.223136	-0.484716	-0.118817	0.092229	-0.481542	-0.188338	0.120430	-0.443330	-0.176412	0.055738	-0.528958	-0.107201	0.062332	-0.302609	-0.065791	0.044318	-0.358340	-0.162362	0.054566	-0.310835
39	0.380000	-0.315233	0.970679	-0.482460	-0.245524	1.002542	-0.667315	-0.150089	0.993351	-0.659885	-0.090491	0.979091	-0.469172	-0.370986	0.890764	-0.553239	-0.384575	0.772418	-0.549812	-0.385760	0.787788	-0.486479	-0.391047	0.709031	-0.458132	-0.391062	0.689685	-0.519216	-0.390840	0.543212	-0.481143	-0.273383	0.542051	-0.440153	-0.392301	0.461955	-0.568638	-0.382925	0.414105	-0.528772	-0.368362	0.358405	-0.595108	-0.379448	0.411368	-0.632260	-0.302506	0.279871	-0.791165	-0.246989	0.244249	-0.745486	-0.234875	0.283729	-0.847094	-0.351720	0.110847	-0.739961	-0.378337	0.150296	-0.805254	-0.291027	0.096825	-0.750941	-0.035492	0.904474	-0.542659	-0.035102	0.697239	-0.490517	-0.046288	0.706315	-0.429060	-0.060580	0.624963	-0.422185	-0.050688	0.610852	-0.484759	-0.074313	0.529872	-0.452121	-0.178637	0.552193	-0.443554	-0.068821	0.305034	-0.479664	-0.089571	0.313220	-0.419089	-0.104147	0.226541	-0.424528	-0.084310	0.223481	-0.483226	-0.118850	0.092140	-0.481008	-0.188161	0.120555	-0.443017	-0.176321	0.055818	-0.528990	-0.107129	0.062012	-0.302507	-0.065542	0.044409	-0.357998	-0.162295	0.054458	-0.310816
40	0.390000	-0.314234	0.972488	-0.471382	-0.245580	1.004419	-0.656448	-0.150009	0.995123	-0.649311	-0.088960	0.980195	-0.458085	-0.370574	0.892810	-0.541227	-0.384752	0.774058	-0.534043	-0.385893	0.790907	-0.471294	-0.391230	0.712812	-0.440872	-0.391547	0.692015	-0.501647	-0.391780	0.546665	-0.460529	-0.277743	0.546199	-0.417507	-0.392728	0.463808	-0.546171	-0.383704	0.416878	-0.505350	-0.369378	0.360096	-0.570529	-0.380229	0.412143	-0.608807	-0.303509	0.277595	-0.765497	-0.247616	0.243530	-0.719173	-0.236084	0.279624	-0.821956	-0.352598	0.110364	-0.708824	-0.379356	0.147476	-0.775521	-0.292226	0.096120	-0.719521	-0.035087	0.905284	-0.533265	-0.034791	0.697940	-0.482474	-0.046453	0.705974	-0.421163	-0.060930	0.624443	-0.415871	-0.050315	0.611430	-0.478422	-0.074179	0.529753	-0.447169	-0.178542	0.551994	-0.439060	-0.068618	0.305202	-0.477621	-0.089049	0.312897	-0.417087	-0.103723	0.226274	-0.423242	-0.084134	0.223820	-0.482097	-0.118797	0.092390	-0.480787	-0.188092	0.120634	-0.442582	-0.176504	0.055363	-0.528994	-0.107182	0.061712	-0.302367	-0.065478	0.044371	-0.357925	-0.162296	0.054324	-0.310702
41	0.400000	-0.313077	0.974417	-0.460014	-0.245611	1.006060	-0.645563	-0.149935	0.996628	-0.638574	-0.087796	0.981109	-0.447792	-0.369493	0.894370	-0.528600	-0.384957	0.775598	-0.518561	-0.385919	0.793665	-0.455920	-0.391762	0.716381	-0.424400	-0.391551	0.693458	-0.483312	-0.392521	0.550020	-0.440173	-0.278158	0.551579	-0.396190	-0.394019	0.464994	-0.523772	-0.387089	0.419571	-0.481974	-0.369765	0.360777	-0.545733	-0.381238	0.411830	-0.585269	-0.304862	0.274166	-0.739513	-0.248620	0.241566	-0.692097	-0.237449	0.274152	-0.796432	-0.353642	0.108846	-0.676491	-0.380287	0.143427	-0.744563	-0.292862	0.094364	-0.686985	-0.034796	0.906030	-0.523451	-0.034770	0.698677	-0.474837	-0.046700	0.705583	-0.413477	-0.061274	0.624001	-0.409542	-0.050243	0.612139	-0.472229	-0.074173	0.529797	-0.442722	-0.178682	0.551715	-0.434934	-0.068677	0.305582	-0.476034	-0.088852	0.312861	-0.415298	-0.103817	0.226063	-0.422041	-0.084449	0.223938	-0.480950	-0.118846	0.092637	-0.480465	-0.188190	0.120695	-0.442249	-0.176555	0.055436	-0.528893	-0.107223	0.061388	-0.302191	-0.065485	0.044317	-0.357841	-0.162266	0.054233	-0.310563
42	0.410000	-0.312027	0.975696	-0.448722	-0.245627	1.007442	-0.634597	-0.149984	0.997998	-0.627912	-0.086810	0.981509	-0.437236	-0.369732	0.896164	-0.516480	-0.385107	0.776976	-0.503349	-0.385949	0.796471	-0.441305	-0.391690	0.719855	-0.407520	-0.391902	0.695672	-0.466281	-0.392899	0.553265	-0.419795	-0.278855	0.555629	-0.376779	-0.394561	0.465558	-0.501230	-0.388217	0.422711	-0.459496	-0.370946	0.361435	-0.520232	-0.382572	0.410803	-0.561522	-0.305861	0.269347	-0.712662	-0.248691	0.239237	-0.664261	-0.239491	0.267312	-0.770640	-0.353988	0.106626	-0.642714	-0.381204	0.138325	-0.711923	-0.293241	0.091897	-0.653219	-0.034339	0.906481	-0.513695	-0.034604	0.699273	-0.467492	-0.046763	0.705362	-0.406047	-0.061690	0.623546	-0.403155	-0.050398	0.612396	-0.465866	-0.073926	0.529462	-0.438541	-0.178744	0.551778	-0.430798	-0.068973	0.305849	-0.474643	-0.088581	0.312377	-0.413423	-0.103701	0.225791	-0.420986	-0.084710	0.224181	-0.479982	-0.119049	0.092882	-0.480151	-0.188379	0.120649	-0.441274	-0.176610	0.055498	-0.528808	-0.107158	0.061101	-0.301996	-0.065485	0.044275	-0.357784	-0.162268	0.054095	-0.310446
43	0.420000	-0.310929	0.976905	-0.437392	-0.245653	1.008796	-0.623774	-0.149985	0.998959	-0.617305	-0.085753	0.982176	-0.426976	-0.369265	0.897405	-0.503694	-0.385571	0.778293	-0.488430	-0.385961	0.798689	-0.426459	-0.391916	0.722910	-0.391782	-0.392311	0.697726	-0.449784	-0.393472	0.556435	-0.400412	-0.279262	0.559901	-0.357923	-0.395955	0.465606	-0.478852	-0.385339	0.422699	-0.434647	-0.371290	0.361109	-0.495226	-0.383993	0.409089	-0.537730	-0.307079	0.263570	-0.685459	-0.250402	0.235266	-0.636817	-0.241138	0.259173	-0.744179	-0.354034	0.103969	-0.608065	-0.381998	0.132206	-0.678174	-0.293858	0.089053	-0.618217	-0.034238	0.907026	-0.503066	-0.034618	0.699543	-0.460455	-0.046734	0.705001	-0.399098	-0.061637	0.623378	-0.397275	-0.050873	0.613530	-0.460831	-0.073614	0.529277	-0.434659	-0.178803	0.551755	-0.426483	-0.069205	0.305934	-0.473009	-0.088543	0.312000	-0.411761	-0.103258	0.225535	-0.420000	-0.084908	0.224615	-0.479204	-0.118806	0.093738	-0.480098	-0.188819	0.120242	-0.440958	-0.176649	0.055606	-0.528761	-0.107094	0.061050	-0.301306	-0.065426	0.044185	-0.357682	-0.162348	0.053813	-0.310228
44	0.430000	-0.309812	0.977664	-0.426170	-0.245711	1.009691	-0.612842	-0.149683	0.998965	-0.606153	-0.084814	0.982240	-0.416533	-0.368832	0.898607	-0.490997	-0.385592	0.779764	-0.473705	-0.385931	0.801394	-0.412446	-0.392222	0.726165	-0.376203	-0.392677	0.699833	-0.433583	-0.393748	0.559382	-0.381222	-0.279902	0.563688	-0.339718	-0.397847	0.464163	-0.457185	-0.386158	0.423651	-0.411824	-0.371460	0.360617	-0.470066	-0.385309	0.406366	-0.514060	-0.308275	0.256622	-0.657457	-0.250893	0.230919	-0.608377	-0.242940	0.249645	-0.717043	-0.354504	0.100973	-0.572506	-0.382790	0.125691	-0.643429	-0.294632	0.085406	-0.581778	-0.033729	0.907854	-0.493906	-0.035188	0.700796	-0.455370	-0.046158	0.704543	-0.392502	-0.061385	0.622940	-0.391705	-0.051127	0.613581	-0.454914	-0.074252	0.530189	-0.431380	-0.178648	0.551655	-0.421433	-0.069308	0.306121	-0.471617	-0.088181	0.311865	-0.410270	-0.103321	0.225268	-0.418891	-0.085092	0.224937	-0.478318	-0.119287	0.093317	-0.479609	-0.188606	0.120497	-0.440351	-0.176962	0.055356	-0.528411	-0.107036	0.060764	-0.301168	-0.065395	0.044138	-0.357620	-0.162374	0.053343	-0.310327
